<svg width="351" height="730" viewBox="0 0 351 730" fill="none" xmlns="http://www.w3.org/2000/svg">
<path d="M350.512 167.048H346.649V61.2393C346.649 53.1973 345.065 45.234 341.988 37.8041C338.91 30.3742 334.399 23.6232 328.713 17.9366C323.026 12.25 316.275 7.73915 308.845 4.66158C301.415 1.58401 293.452 6.56623e-06 285.41 1.38002e-10H61.2394C53.1974 -1.70717e-05 45.234 1.58397 37.8041 4.66151C30.3742 7.73906 23.6233 12.2499 17.9366 17.9365C12.25 23.6231 7.7392 30.374 4.66162 37.8039C1.58405 45.2338 1.44454e-05 53.1971 0 61.2392V641.715C-1.32608e-05 657.957 6.45194 673.533 17.9365 685.018C29.4211 696.502 44.9976 702.954 61.2392 702.954H285.41C301.651 702.954 317.228 696.502 328.712 685.018C340.197 673.533 346.649 657.957 346.649 641.715V242.365H350.512V167.048Z" fill="#3F3D56"/>
<path d="M287.881 15.9323H258.62C259.965 19.2315 260.479 22.8109 260.115 26.3554C259.752 29.8998 258.522 33.3004 256.535 36.2576C254.547 39.2149 251.863 41.638 248.719 43.3135C245.574 44.989 242.066 45.8655 238.503 45.8658H110.078C106.515 45.8656 103.007 44.9891 99.8627 43.3135C96.7182 41.638 94.034 39.2149 92.0466 36.2577C90.0592 33.3004 88.8295 29.8998 88.4659 26.3553C88.1024 22.8109 88.6161 19.2315 89.9617 15.9323H62.6313C50.5022 15.9323 38.8699 20.7506 30.2933 29.3271C21.7167 37.9037 16.8985 49.536 16.8984 61.6651V641.289C16.8984 647.295 18.0813 653.242 20.3796 658.79C22.6779 664.339 26.0466 669.381 30.2932 673.627C34.5399 677.874 39.5815 681.243 45.13 683.541C50.6786 685.839 56.6255 687.022 62.6312 687.022H287.881C293.887 687.022 299.834 685.839 305.383 683.541C310.931 681.243 315.973 677.874 320.219 673.627C324.466 669.381 327.835 664.339 330.133 658.79C332.431 653.242 333.614 647.295 333.614 641.289V61.6651C333.614 55.6594 332.431 49.7125 330.133 44.1639C327.835 38.6154 324.466 33.5738 320.219 29.3271C315.973 25.0805 310.931 21.7118 305.383 19.4135C299.834 17.1152 293.887 15.9323 287.881 15.9323Z" fill="white"/>
<path d="M282.239 677.07H68.2742C43.689 677.07 23.6875 659.217 23.6875 637.274V608.463C23.6875 590.974 39.6165 576.745 59.1956 576.745H291.318C310.897 576.745 326.826 590.974 326.826 608.463V637.274C326.826 659.217 306.824 677.07 282.239 677.07Z" fill="#E5E5E5"/>
<path d="M90.7648 192.845H43.0374C42.1824 192.844 41.3627 192.504 40.7581 191.899C40.1536 191.295 39.8135 190.475 39.8125 189.62V141.893C39.8135 141.038 40.1536 140.218 40.7581 139.613C41.3627 139.009 42.1824 138.669 43.0374 138.668H90.7648C91.6198 138.669 92.4395 139.009 93.0441 139.613C93.6486 140.218 93.9887 141.038 93.9897 141.893V189.62C93.9887 190.475 93.6486 191.295 93.0441 191.899C92.4395 192.504 91.6198 192.844 90.7648 192.845Z" fill="#5815DD"/>
<path d="M163.001 192.845H115.274C114.419 192.844 113.599 192.504 112.994 191.899C112.39 191.295 112.05 190.475 112.049 189.62V141.893C112.05 141.038 112.39 140.218 112.994 139.613C113.599 139.009 114.419 138.669 115.274 138.668H163.001C163.856 138.669 164.676 139.009 165.28 139.613C165.885 140.218 166.225 141.038 166.226 141.893V189.62C166.225 190.475 165.885 191.295 165.28 191.899C164.676 192.504 163.856 192.844 163.001 192.845Z" fill="#E5E5E5"/>
<path d="M235.237 192.845H187.51C186.655 192.844 185.835 192.504 185.231 191.899C184.626 191.295 184.286 190.475 184.285 189.62V141.893C184.286 141.038 184.626 140.218 185.231 139.613C185.835 139.009 186.655 138.669 187.51 138.668H235.237C236.092 138.669 236.912 139.009 237.517 139.613C238.121 140.218 238.461 141.038 238.462 141.893V189.62C238.461 190.475 238.121 191.295 237.517 191.899C236.912 192.504 236.092 192.844 235.237 192.845Z" fill="#E5E5E5"/>
<path d="M307.474 192.845H259.746C258.891 192.844 258.072 192.504 257.467 191.899C256.863 191.295 256.522 190.475 256.521 189.62V141.893C256.522 141.038 256.863 140.218 257.467 139.613C258.072 139.009 258.891 138.669 259.746 138.668H307.474C308.329 138.669 309.148 139.009 309.753 139.613C310.358 140.218 310.698 141.038 310.699 141.893V189.62C310.698 190.475 310.358 191.295 309.753 191.899C309.148 192.504 308.329 192.844 307.474 192.845Z" fill="#E5E5E5"/>
<path d="M90.5949 281.205H42.8674C42.0124 281.204 41.1928 280.864 40.5882 280.26C39.9837 279.655 39.6436 278.835 39.6426 277.98V230.253C39.6436 229.398 39.9837 228.578 40.5882 227.974C41.1928 227.369 42.0124 227.029 42.8674 227.028H90.5949C91.4498 227.029 92.2696 227.369 92.8741 227.974C93.4787 228.578 93.8187 229.398 93.8197 230.253V277.98C93.8187 278.835 93.4787 279.655 92.8741 280.26C92.2696 280.864 91.4499 281.204 90.5949 281.205Z" fill="#E5E5E5"/>
<path d="M162.831 281.205H115.104C114.249 281.204 113.429 280.864 112.825 280.26C112.22 279.655 111.88 278.835 111.879 277.98V230.253C111.88 229.398 112.22 228.578 112.825 227.974C113.429 227.369 114.249 227.029 115.104 227.028H162.831C163.686 227.029 164.506 227.369 165.11 227.974C165.715 228.578 166.055 229.398 166.056 230.253V277.98C166.055 278.835 165.715 279.655 165.11 280.26C164.506 280.864 163.686 281.204 162.831 281.205Z" fill="#E5E5E5"/>
<path d="M235.068 281.205H187.34C186.485 281.204 185.665 280.864 185.061 280.26C184.456 279.655 184.116 278.835 184.115 277.98V230.253C184.116 229.398 184.456 228.578 185.061 227.974C185.665 227.369 186.485 227.029 187.34 227.028H235.068C235.923 227.029 236.742 227.369 237.347 227.974C237.951 228.578 238.291 229.398 238.292 230.253V277.98C238.291 278.835 237.951 279.655 237.347 280.26C236.742 280.864 235.923 281.204 235.068 281.205Z" fill="#5815DD"/>
<path d="M307.304 281.205H259.576C258.721 281.204 257.902 280.864 257.297 280.26C256.693 279.655 256.353 278.835 256.352 277.98V230.253C256.353 229.398 256.693 228.578 257.297 227.974C257.902 227.369 258.721 227.029 259.576 227.028H307.304C308.159 227.029 308.979 227.369 309.583 227.974C310.188 228.578 310.528 229.398 310.529 230.253V277.98C310.528 278.835 310.188 279.655 309.583 280.26C308.979 280.864 308.159 281.204 307.304 281.205Z" fill="#5815DD"/>
<path d="M90.4231 369.566H42.6955C41.8406 369.565 41.0209 369.225 40.4164 368.62C39.8118 368.015 39.4717 367.196 39.4707 366.341V318.613C39.4717 317.758 39.8118 316.939 40.4164 316.334C41.0209 315.73 41.8406 315.389 42.6955 315.388H90.4231C91.278 315.389 92.0977 315.73 92.7022 316.334C93.3068 316.939 93.6469 317.758 93.6479 318.613V366.341C93.6469 367.196 93.3068 368.015 92.7022 368.62C92.0977 369.225 91.278 369.565 90.4231 369.566Z" fill="#E5E5E5"/>
<path d="M162.659 369.566H114.932C114.077 369.565 113.257 369.225 112.653 368.62C112.048 368.015 111.708 367.196 111.707 366.341V318.613C111.708 317.758 112.048 316.939 112.653 316.334C113.257 315.73 114.077 315.389 114.932 315.388H162.659C163.514 315.389 164.334 315.73 164.939 316.334C165.543 316.939 165.883 317.758 165.884 318.613V366.341C165.883 367.196 165.543 368.015 164.939 368.62C164.334 369.225 163.514 369.565 162.659 369.566Z" fill="#E5E5E5"/>
<path d="M234.896 369.566H187.168C186.313 369.565 185.494 369.225 184.889 368.62C184.284 368.015 183.944 367.196 183.943 366.341V318.613C183.944 317.758 184.284 316.939 184.889 316.334C185.494 315.73 186.313 315.389 187.168 315.388H234.896C235.751 315.389 236.57 315.73 237.175 316.334C237.779 316.939 238.12 317.758 238.121 318.613V366.341C238.12 367.196 237.779 368.015 237.175 368.62C236.57 369.225 235.751 369.565 234.896 369.566Z" fill="#E5E5E5"/>
<path d="M307.132 369.566H259.405C258.55 369.565 257.73 369.225 257.125 368.62C256.521 368.015 256.181 367.196 256.18 366.341V318.613C256.181 317.758 256.521 316.939 257.125 316.334C257.73 315.73 258.55 315.389 259.405 315.388H307.132C307.987 315.389 308.807 315.73 309.411 316.334C310.016 316.939 310.356 317.758 310.357 318.613V366.341C310.356 367.196 310.016 368.015 309.411 368.62C308.807 369.225 307.987 369.565 307.132 369.566Z" fill="#E5E5E5"/>
<path d="M90.2531 457.926H42.5256C41.6706 457.925 40.851 457.585 40.2464 456.98C39.6419 456.376 39.3018 455.556 39.3008 454.701V406.974C39.3018 406.119 39.6419 405.299 40.2464 404.695C40.851 404.09 41.6706 403.75 42.5256 403.749H90.2531C91.1081 403.75 91.9278 404.09 92.5323 404.695C93.1369 405.299 93.4769 406.119 93.4779 406.974V454.701C93.4769 455.556 93.1369 456.376 92.5323 456.98C91.9278 457.585 91.1081 457.925 90.2531 457.926Z" fill="#E5E5E5"/>
<path d="M162.489 457.926H114.762C113.907 457.925 113.087 457.585 112.483 456.98C111.878 456.376 111.538 455.556 111.537 454.701V406.974C111.538 406.119 111.878 405.299 112.483 404.695C113.087 404.09 113.907 403.75 114.762 403.749H162.489C163.344 403.75 164.164 404.09 164.769 404.695C165.373 405.299 165.713 406.119 165.714 406.974V454.701C165.713 455.556 165.373 456.376 164.769 456.98C164.164 457.585 163.344 457.925 162.489 457.926Z" fill="#E5E5E5"/>
<path d="M234.726 457.926H186.998C186.143 457.925 185.324 457.585 184.719 456.98C184.115 456.376 183.774 455.556 183.773 454.701V406.974C183.774 406.119 184.115 405.299 184.719 404.695C185.324 404.09 186.143 403.75 186.998 403.749H234.726C235.581 403.75 236.4 404.09 237.005 404.695C237.609 405.299 237.95 406.119 237.951 406.974V454.701C237.95 455.556 237.61 456.376 237.005 456.98C236.4 457.585 235.581 457.925 234.726 457.926Z" fill="#E5E5E5"/>
<path d="M306.962 457.926H259.235C258.38 457.925 257.56 457.585 256.955 456.98C256.351 456.376 256.011 455.556 256.01 454.701V406.974C256.011 406.119 256.351 405.299 256.955 404.695C257.56 404.09 258.38 403.75 259.235 403.749H306.962C307.817 403.75 308.637 404.09 309.241 404.695C309.846 405.299 310.186 406.119 310.187 406.974V454.701C310.186 455.556 309.846 456.376 309.241 456.98C308.637 457.585 307.817 457.925 306.962 457.926Z" fill="#E5E5E5"/>
<path d="M90.7648 655.286H43.0374C42.1824 655.285 41.3627 654.945 40.7581 654.34C40.1536 653.736 39.8135 652.916 39.8125 652.061V604.333C39.8135 603.479 40.1536 602.659 40.7581 602.054C41.3627 601.45 42.1824 601.11 43.0374 601.109H90.7648C91.6198 601.11 92.4395 601.45 93.0441 602.054C93.6486 602.659 93.9887 603.479 93.9897 604.333V652.061C93.9887 652.916 93.6486 653.736 93.0441 654.34C92.4395 654.945 91.6198 655.285 90.7648 655.286Z" fill="white"/>
<path d="M163.001 655.286H115.274C114.419 655.285 113.599 654.945 112.994 654.34C112.39 653.736 112.05 652.916 112.049 652.061V604.333C112.05 603.479 112.39 602.659 112.994 602.054C113.599 601.45 114.419 601.11 115.274 601.109H163.001C163.856 601.11 164.676 601.45 165.28 602.054C165.885 602.659 166.225 603.479 166.226 604.333V652.061C166.225 652.916 165.885 653.736 165.28 654.34C164.676 654.945 163.856 655.285 163.001 655.286Z" fill="white"/>
<path d="M235.237 655.286H187.51C186.655 655.285 185.835 654.945 185.231 654.34C184.626 653.736 184.286 652.916 184.285 652.061V604.333C184.286 603.479 184.626 602.659 185.231 602.054C185.835 601.45 186.655 601.11 187.51 601.109H235.237C236.092 601.11 236.912 601.45 237.517 602.054C238.121 602.659 238.461 603.479 238.462 604.333V652.061C238.461 652.916 238.121 653.736 237.517 654.34C236.912 654.945 236.092 655.285 235.237 655.286Z" fill="white"/>
<path d="M307.474 655.286H259.746C258.891 655.285 258.072 654.945 257.467 654.34C256.863 653.736 256.522 652.916 256.521 652.061V604.333C256.522 603.479 256.863 602.659 257.467 602.054C258.072 601.45 258.891 601.11 259.746 601.109H307.474C308.329 601.11 309.148 601.45 309.753 602.054C310.358 602.659 310.698 603.479 310.699 604.333V652.061C310.698 652.916 310.358 653.736 309.753 654.34C309.148 654.945 308.329 655.285 307.474 655.286Z" fill="white"/>
<path d="M151.866 554.671C155.428 554.671 158.315 551.783 158.315 548.221C158.315 544.659 155.428 541.772 151.866 541.772C148.304 541.772 145.416 544.659 145.416 548.221C145.416 551.783 148.304 554.671 151.866 554.671Z" fill="#E5E5E5"/>
<path d="M175.084 554.671C178.646 554.671 181.534 551.783 181.534 548.221C181.534 544.659 178.646 541.772 175.084 541.772C171.522 541.772 168.635 544.659 168.635 548.221C168.635 551.783 171.522 554.671 175.084 554.671Z" fill="#E5E5E5"/>
<path d="M198.303 554.671C201.865 554.671 204.753 551.783 204.753 548.221C204.753 544.659 201.865 541.772 198.303 541.772C194.741 541.772 191.854 544.659 191.854 548.221C191.854 551.783 194.741 554.671 198.303 554.671Z" fill="#E5E5E5"/>
<path d="M86.1191 507.102C87.4683 505.753 88.5054 504.125 89.1574 502.332C89.8093 500.539 90.0602 498.625 89.8925 496.725C89.7247 494.825 89.1423 492.984 88.1863 491.333C87.2304 489.683 85.924 488.261 84.3594 487.17L96.955 442.541L73.9908 449.844L65.5504 491.105C63.8912 493.855 63.2983 497.118 63.8843 500.276C64.4702 503.434 66.1941 506.268 68.7295 508.239C71.2648 510.211 74.4354 511.185 77.6404 510.975C80.8454 510.765 83.8622 509.387 86.1191 507.102Z" fill="#FFB7B7"/>
<path d="M92.6494 479.747C92.2392 479.825 91.8219 479.86 91.4044 479.852L69.3747 479.411C68.5457 479.394 67.7297 479.201 66.981 478.844C66.2323 478.488 65.5682 477.976 65.0328 477.343C64.4974 476.71 64.103 475.97 63.8758 475.172C63.6486 474.375 63.5939 473.538 63.7152 472.718L86.0629 321.727C86.73 317.359 88.937 313.375 92.2852 310.492C95.6335 307.61 99.9021 306.02 104.32 306.01C107.11 306.017 109.861 306.658 112.367 307.884C114.873 309.11 117.067 310.89 118.784 313.088C120.502 315.286 121.697 317.846 122.28 320.574C122.863 323.302 122.819 326.127 122.15 328.835L106.31 392.992L97.3264 474.653C97.1961 475.891 96.6711 477.055 95.829 477.972C94.9869 478.889 93.8722 479.511 92.6494 479.747Z" fill="#3F3D56"/>
<path d="M101.861 718.105H114.121L119.954 670.817L101.859 670.818L101.861 718.105Z" fill="#FFB7B7"/>
<path d="M98.7344 714.103L122.878 714.102H122.879C126.96 714.102 130.873 715.723 133.759 718.608C136.644 721.494 138.266 725.407 138.266 729.488V729.988L98.7351 729.989L98.7344 714.103Z" fill="#2F2E41"/>
<path d="M154.139 714.123L166.322 715.489L177.389 669.146L159.407 667.13L154.139 714.123Z" fill="#FFB7B7"/>
<path d="M151.475 709.797L175.469 712.487C179.524 712.942 183.233 714.989 185.779 718.178C188.325 721.368 189.5 725.437 189.045 729.492L188.99 729.989L149.705 725.585L151.475 709.797Z" fill="#2F2E41"/>
<path d="M90.354 454.955C90.354 454.955 73.546 492.164 88.3888 516.332L97.2317 704.5H117.535L137.232 552.5L172.232 597.5L150.908 702.528L175.74 703.922L210.232 597.5C210.232 597.5 183.734 480.151 174.983 477.326L169.232 450.5L90.354 454.955Z" fill="#2F2E41"/>
<path d="M82.8736 487.622C82.8736 487.622 67.7319 505 107.732 511C147.732 517 189.732 508 190.732 496C191.732 484 82.8736 487.622 82.8736 487.622Z" fill="#CBCBCB"/>
<path d="M283.391 272.053C283.329 273.749 282.896 275.412 282.122 276.922C281.348 278.433 280.252 279.756 278.912 280.798C277.572 281.839 276.019 282.574 274.364 282.951C272.709 283.328 270.991 283.337 269.332 282.978L254.212 304.782L238.721 298.826L260.505 268.334C261.293 265.586 263.061 263.224 265.475 261.693C267.888 260.162 270.779 259.57 273.6 260.028C276.421 260.487 278.976 261.964 280.78 264.18C282.585 266.397 283.514 269.198 283.391 272.053Z" fill="#FFB7B7"/>
<path d="M155.52 300.107L134.142 290.436L106.753 292.394C106.753 292.394 73.7324 331 86.7324 368L78.7324 497C129.732 511 152.916 484.742 189.732 496L178.36 352.631L155.52 300.107Z" fill="#3F3D56"/>
<path d="M141.232 309.5L155.52 300.107C155.52 300.107 175.366 297.107 183.299 304.803C183.299 304.803 210.226 307.057 216.729 313.779L223.889 315.393L247.676 284.591L262.232 292.5L241.232 349.5L178.36 352.631L141.232 309.5Z" fill="#3F3D56"/>
<path d="M146.161 279.587C162.514 270.648 168.524 250.144 159.585 233.791C150.646 217.439 130.142 211.429 113.789 220.368C97.4364 229.307 91.4264 249.811 100.366 266.164C109.305 282.516 129.808 288.526 146.161 279.587Z" fill="#FFB7B7"/>
<path d="M100.789 223.595C106.813 212.762 114.34 205.747 126.733 206C139.126 206.253 149.846 205.763 155.422 216.834C156.895 214.075 157.633 210.982 157.565 207.855C159.248 208.948 160.575 210.51 161.382 212.348C162.189 214.186 162.439 216.22 162.104 218.199C163.188 217.564 164.096 216.667 164.744 215.59C165.392 214.513 165.759 213.29 165.812 212.034C169.948 213.411 171.023 219.239 168.93 223.063C166.837 226.887 162.733 229.098 158.795 230.967C154.857 232.836 156.675 242.722 154.104 246.242C152.309 248.698 151.488 251.709 150.279 254.5C150.228 254.611 150.142 254.701 150.034 254.756C147.261 256.302 145.511 259.064 146.001 262.201C146.059 262.436 146.045 262.684 145.961 262.911C142.451 269.524 138.662 276.443 132.299 280.389C127.194 283.472 121.079 284.417 115.281 283.02C108.777 281.465 103.155 277.153 99.1008 271.835C95.0466 266.517 92.4388 260.233 90.4792 253.839C88.741 248.168 87.4769 242.104 88.8551 236.335C90.2333 230.565 94.9022 225.223 100.817 224.777" fill="#2F2E41"/>
</svg>
